STARTFONT 2.1
COMMENT 12-point 3270 font
COMMENT Uses nonstandard ordering
COMMENT Copyright 1993, 1994 by Paul Mattes.
COMMENT  Permission to use, copy, modify, and distribute this software and
COMMENT  its documentation for any purpose and without fee is hereby
COMMENT  granted, provided that the above copyright notice appear in all
COMMENT  copies and that both that copyright notice and this permission
COMMENT  notice appear in supporting documentation.
FONT 3270-12
SIZE 12 72 72
FONTBOUNDINGBOX 7 12 0 -2
STARTPROPERTIES 15
FONTNAME_REGISTRY ""
FOUNDRY "Misc"
FAMILY_NAME "3270"
WEIGHT_NAME "Medium"
SLANT "R"
PIXEL_SIZE 12
POINT_SIZE 120
RESOLUTION_X 72
RESOLUTION_Y 72
SPACING "C"
CHARSET_REGISTRY ""
CHARSET_ENCODING ""
FONT_ASCENT 10
FONT_DESCENT 2
DEFAULT_CHAR 0
ENDPROPERTIES
CHARS 256
STARTCHAR null
ENCODING 0
SWIDTH 42 0
DWIDTH 7 0
BBX 7 11 0 -1
BITMAP
00
00
00
00
00
00
00
00
00
00
00
ENDCHAR
STARTCHAR nobreakspace
ENCODING 1
SWIDTH 42 0
DWIDTH 7 0
BBX 7 11 0 -1
BITMAP
00
00
00
00
00
00
00
00
00
00
00
ENDCHAR
STARTCHAR ff
ENCODING 2
SWIDTH 42 0
DWIDTH 7 0
BBX 7 11 0 -1
BITMAP
00
00
00
00
00
00
00
00
00
00
00
ENDCHAR
STARTCHAR cr
ENCODING 3
SWIDTH 42 0
DWIDTH 7 0
BBX 7 11 0 -1
BITMAP
00
00
00
00
00
00
00
00
00
00
00
ENDCHAR
STARTCHAR nl
ENCODING 4
SWIDTH 42 0
DWIDTH 7 0
BBX 7 11 0 -1
BITMAP
00
00
00
00
00
00
00
00
00
00
00
ENDCHAR
STARTCHAR em
ENCODING 5
SWIDTH 42 0
DWIDTH 7 0
BBX 7 11 0 -1
BITMAP
00
00
00
00
00
00
00
00
00
00
00
ENDCHAR
STARTCHAR eightones
ENCODING 6
SWIDTH 42 0
DWIDTH 7 0
BBX 6 6 1 1
BITMAP
78
fc
fc
fc
fc
78
ENDCHAR
STARTCHAR hyphen
ENCODING 7
SWIDTH 42 0
DWIDTH 7 0
BBX 5 1 1 4
BITMAP
f8
ENDCHAR
STARTCHAR greater
ENCODING 8
SWIDTH 42 0
DWIDTH 7 0
BBX 6 11 0 -1
BITMAP
80
40
20
10
08
04
08
10
20
40
80
ENDCHAR
STARTCHAR less
ENCODING 9
SWIDTH 42 0
DWIDTH 7 0
BBX 6 11 0 -1
BITMAP
04
08
10
20
40
80
40
20
10
08
04
ENDCHAR
STARTCHAR bracketleft
ENCODING 10
SWIDTH 42 0
DWIDTH 7 0
BBX 4 11 2 -1
BITMAP
f0
80
80
80
80
80
80
80
80
80
f0
ENDCHAR
STARTCHAR bracketright
ENCODING 11
SWIDTH 42 0
DWIDTH 7 0
BBX 4 11 1 -1
BITMAP
f0
10
10
10
10
10
10
10
10
10
f0
ENDCHAR
STARTCHAR parenright
ENCODING 12
SWIDTH 42 0
DWIDTH 7 0
BBX 3 11 2 -1
BITMAP
80
40
40
20
20
20
20
20
40
40
80
ENDCHAR
STARTCHAR parenleft
ENCODING 13
SWIDTH 42 0
DWIDTH 7 0
BBX 3 11 2 -1
BITMAP
20
40
40
80
80
80
80
80
40
40
20
ENDCHAR
STARTCHAR braceright
ENCODING 14
SWIDTH 42 0
DWIDTH 7 0
BBX 5 11 1 -1
BITMAP
c0
20
20
20
20
18
20
20
20
20
c0
ENDCHAR
STARTCHAR braceleft
ENCODING 15
SWIDTH 42 0
DWIDTH 7 0
BBX 5 11 1 -1
BITMAP
18
20
20
20
20
c0
20
20
20
20
18
ENDCHAR
STARTCHAR space
ENCODING 16
SWIDTH 42 0
DWIDTH 7 0
BBX 7 11 0 -1
BITMAP
00
00
00
00
00
00
00
00
00
00
00
ENDCHAR
STARTCHAR equal
ENCODING 17
SWIDTH 42 0
DWIDTH 7 0
BBX 5 5 1 2
BITMAP
f8
00
00
00
f8
ENDCHAR
STARTCHAR apostrophe
ENCODING 18
SWIDTH 42 0
DWIDTH 7 0
BBX 3 4 2 6
BITMAP
20
20
40
80
ENDCHAR
STARTCHAR quotedbl
ENCODING 19
SWIDTH 42 0
DWIDTH 7 0
BBX 4 4 1 6
BITMAP
90
90
90
90
ENDCHAR
STARTCHAR slash
ENCODING 20
SWIDTH 42 0
DWIDTH 7 0
BBX 5 10 1 0
BITMAP
08
08
10
10
20
20
40
40
80
80
ENDCHAR
STARTCHAR backslash
ENCODING 21
SWIDTH 42 0
DWIDTH 7 0
BBX 5 10 1 0
BITMAP
80
80
40
40
20
20
10
10
08
08
ENDCHAR
STARTCHAR bar
ENCODING 22
SWIDTH 42 0
DWIDTH 7 0
BBX 1 12 3 -2
BITMAP
80
80
80
80
80
80
80
80
80
80
80
80
ENDCHAR
STARTCHAR brokenbar
ENCODING 23
SWIDTH 42 0
DWIDTH 7 0
BBX 1 12 3 -2
BITMAP
80
80
80
80
00
00
00
80
80
80
80
00
ENDCHAR
STARTCHAR question
ENCODING 24
SWIDTH 42 0
DWIDTH 7 0
BBX 5 10 1 0
BITMAP
70
88
88
08
10
20
20
00
00
20
ENDCHAR
STARTCHAR exclam
ENCODING 25
SWIDTH 42 0
DWIDTH 7 0
BBX 1 10 3 0
BITMAP
80
80
80
80
80
80
80
00
00
80
ENDCHAR
STARTCHAR dollar
ENCODING 26
SWIDTH 42 0
DWIDTH 7 0
BBX 5 11 1 -1
BITMAP
20
70
a8
a0
a0
70
28
28
a8
70
20
ENDCHAR
STARTCHAR cent
ENCODING 27
SWIDTH 42 0
DWIDTH 7 0
BBX 5 11 1 -1
BITMAP
20
20
70
a8
a0
a0
a0
a8
70
20
20
ENDCHAR
STARTCHAR sterling
ENCODING 28
SWIDTH 42 0
DWIDTH 7 0
BBX 6 10 0 0
BITMAP
18
24
20
20
f8
20
20
20
e0
dc
ENDCHAR
STARTCHAR yen
ENCODING 29
SWIDTH 42 0
DWIDTH 7 0
BBX 5 10 1 0
BITMAP
88
88
50
70
20
f8
20
f8
20
20
ENDCHAR
STARTCHAR paragraph
ENCODING 30
SWIDTH 42 0
DWIDTH 7 0
BBX 6 11 0 -1
BITMAP
f0
88
88
88
f0
80
88
9c
88
88
08
ENDCHAR
STARTCHAR currency
ENCODING 31
SWIDTH 42 0
DWIDTH 7 0
BBX 6 8 0 1
BITMAP
84
48
30
48
48
30
48
84
ENDCHAR
STARTCHAR 0
ENCODING 32
SWIDTH 42 0
DWIDTH 7 0
BBX 5 9 1 0
BITMAP
70
88
88
88
a8
88
88
88
70
ENDCHAR
STARTCHAR 1
ENCODING 33
SWIDTH 42 0
DWIDTH 7 0
BBX 5 9 1 0
BITMAP
20
60
a0
20
20
20
20
20
f8
ENDCHAR
STARTCHAR 2
ENCODING 34
SWIDTH 42 0
DWIDTH 7 0
BBX 5 9 1 0
BITMAP
70
88
08
08
10
20
40
80
f8
ENDCHAR
STARTCHAR 3
ENCODING 35
SWIDTH 42 0
DWIDTH 7 0
BBX 5 9 1 0
BITMAP
70
88
08
08
30
08
08
88
70
ENDCHAR
STARTCHAR 4
ENCODING 36
SWIDTH 42 0
DWIDTH 7 0
BBX 5 9 1 0
BITMAP
10
90
90
90
90
f8
10
10
10
ENDCHAR
STARTCHAR 5
ENCODING 37
SWIDTH 42 0
DWIDTH 7 0
BBX 5 9 1 0
BITMAP
f8
80
80
f0
08
08
88
88
70
ENDCHAR
STARTCHAR 6
ENCODING 38
SWIDTH 42 0
DWIDTH 7 0
BBX 5 9 1 0
BITMAP
70
88
80
80
f0
88
88
88
70
ENDCHAR
STARTCHAR 7
ENCODING 39
SWIDTH 42 0
DWIDTH 7 0
BBX 5 9 1 0
BITMAP
f8
88
08
10
10
10
20
20
20
ENDCHAR
STARTCHAR 8
ENCODING 40
SWIDTH 42 0
DWIDTH 7 0
BBX 5 9 1 0
BITMAP
70
88
88
88
70
88
88
88
70
ENDCHAR
STARTCHAR 9
ENCODING 41
SWIDTH 42 0
DWIDTH 7 0
BBX 5 9 1 0
BITMAP
70
88
88
88
78
08
08
88
70
ENDCHAR
STARTCHAR ssharp
ENCODING 42
SWIDTH 42 0
DWIDTH 7 0
BBX 6 10 0 0
BITMAP
20
50
90
a0
90
88
84
84
c4
b8
ENDCHAR
STARTCHAR section
ENCODING 43
SWIDTH 42 0
DWIDTH 7 0
BBX 6 12 0 -2
BITMAP
38
40
40
a0
90
88
44
24
14
08
08
70
ENDCHAR
STARTCHAR numbersign
ENCODING 44
SWIDTH 42 0
DWIDTH 7 0
BBX 7 10 0 0
BITMAP
24
24
24
7e
24
48
fc
48
48
48
ENDCHAR
STARTCHAR at
ENCODING 45
SWIDTH 42 0
DWIDTH 7 0
BBX 5 10 1 0
BITMAP
20
50
88
b8
a8
a8
b8
80
48
30
ENDCHAR
STARTCHAR percent
ENCODING 46
SWIDTH 42 0
DWIDTH 7 0
BBX 7 10 0 0
BITMAP
64
94
98
68
10
10
2c
32
52
4c
ENDCHAR
STARTCHAR underscore
ENCODING 47
SWIDTH 42 0
DWIDTH 7 0
BBX 6 1 0 -1
BITMAP
fc
ENDCHAR
STARTCHAR ampersand
ENCODING 48
SWIDTH 42 0
DWIDTH 7 0
BBX 7 10 0 0
BITMAP
30
48
48
30
20
52
8c
88
88
76
ENDCHAR
STARTCHAR minus
ENCODING 49
SWIDTH 42 0
DWIDTH 7 0
BBX 5 1 1 4
BITMAP
f8
ENDCHAR
STARTCHAR period
ENCODING 50
SWIDTH 42 0
DWIDTH 7 0
BBX 2 2 3 0
BITMAP
c0
c0
ENDCHAR
STARTCHAR comma
ENCODING 51
SWIDTH 42 0
DWIDTH 7 0
BBX 3 4 2 -2
BITMAP
60
60
20
c0
ENDCHAR
STARTCHAR colon
ENCODING 52
SWIDTH 42 0
DWIDTH 7 0
BBX 2 7 3 0
BITMAP
c0
c0
00
00
00
c0
c0
ENDCHAR
STARTCHAR plus
ENCODING 53
SWIDTH 42 0
DWIDTH 7 0
BBX 5 5 1 2
BITMAP
20
20
f8
20
20
ENDCHAR
STARTCHAR notsign
ENCODING 54
SWIDTH 42 0
DWIDTH 7 0
BBX 6 3 0 5
BITMAP
fc
04
04
ENDCHAR
STARTCHAR macron
ENCODING 55
SWIDTH 42 0
DWIDTH 7 0
BBX 6 1 0 8
BITMAP
fc
ENDCHAR
STARTCHAR degree
ENCODING 56
SWIDTH 42 0
DWIDTH 7 0
BBX 4 4 1 6
BITMAP
60
90
90
60
ENDCHAR
STARTCHAR periodcentered
ENCODING 57
SWIDTH 42 0
DWIDTH 7 0
BBX 2 2 3 3
BITMAP
c0
c0
ENDCHAR
STARTCHAR asciicircum
ENCODING 58
SWIDTH 42 0
DWIDTH 7 0
BBX 5 3 1 6
BITMAP
20
50
88
ENDCHAR
STARTCHAR asciitilde
ENCODING 59
SWIDTH 42 0
DWIDTH 7 0
BBX 5 3 1 6
BITMAP
48
a8
90
ENDCHAR
STARTCHAR diaeresis
ENCODING 60
SWIDTH 42 0
DWIDTH 7 0
BBX 6 2 0 7
BITMAP
cc
cc
ENDCHAR
STARTCHAR grave
ENCODING 61
SWIDTH 42 0
DWIDTH 7 0
BBX 3 3 2 6
BITMAP
80
40
20
ENDCHAR
STARTCHAR acute
ENCODING 62
SWIDTH 42 0
DWIDTH 7 0
BBX 3 3 2 6
BITMAP
20
40
80
ENDCHAR
STARTCHAR cedilla
ENCODING 63
SWIDTH 42 0
DWIDTH 7 0
BBX 3 4 2 -2
BITMAP
20
20
20
c0
ENDCHAR
STARTCHAR agrave
ENCODING 64
SWIDTH 42 0
DWIDTH 7 0
BBX 5 10 1 0
BITMAP
40
20
00
70
88
08
78
88
88
78
ENDCHAR
STARTCHAR egrave
ENCODING 65
SWIDTH 42 0
DWIDTH 7 0
BBX 5 10 1 0
BITMAP
40
20
00
70
88
88
f8
80
88
70
ENDCHAR
STARTCHAR igrave
ENCODING 66
SWIDTH 42 0
DWIDTH 7 0
BBX 3 10 1 0
BITMAP
40
20
00
e0
20
20
20
20
20
20
ENDCHAR
STARTCHAR ograve
ENCODING 67
SWIDTH 42 0
DWIDTH 7 0
BBX 5 10 1 0
BITMAP
40
20
00
70
88
88
88
88
88
70
ENDCHAR
STARTCHAR ugrave
ENCODING 68
SWIDTH 42 0
DWIDTH 7 0
BBX 5 10 1 0
BITMAP
40
20
00
88
88
88
88
88
98
68
ENDCHAR
STARTCHAR atilde
ENCODING 69
SWIDTH 42 0
DWIDTH 7 0
BBX 5 10 1 0
BITMAP
28
50
00
70
88
08
78
88
88
78
ENDCHAR
STARTCHAR otilde
ENCODING 70
SWIDTH 42 0
DWIDTH 7 0
BBX 5 10 1 0
BITMAP
28
50
00
70
88
88
88
88
88
70
ENDCHAR
STARTCHAR ydiaeresis
ENCODING 71
SWIDTH 42 0
DWIDTH 7 0
BBX 5 11 1 -2
BITMAP
48
00
88
88
48
48
28
30
10
10
e0
ENDCHAR
STARTCHAR Yacute
ENCODING 72
SWIDTH 42 0
DWIDTH 7 0
BBX 5 10 1 0
BITMAP
08
10
20
88
88
88
50
20
20
20
ENDCHAR
STARTCHAR yacute
ENCODING 73
SWIDTH 42 0
DWIDTH 7 0
BBX 5 12 1 -2
BITMAP
08
10
20
88
88
48
48
28
30
10
10
e0
ENDCHAR
STARTCHAR eacute
ENCODING 74
SWIDTH 42 0
DWIDTH 7 0
BBX 5 10 1 0
BITMAP
10
20
00
70
88
88
f8
80
88
70
ENDCHAR
STARTCHAR onequarter
ENCODING 75
SWIDTH 42 0
DWIDTH 7 0
BBX 5 11 1 -1
BITMAP
40
c0
40
40
e0
00
28
28
38
08
08
ENDCHAR
STARTCHAR onehalf
ENCODING 76
SWIDTH 42 0
DWIDTH 7 0
BBX 5 11 1 -1
BITMAP
40
c0
40
40
e0
00
30
08
10
20
38
ENDCHAR
STARTCHAR threequarters
ENCODING 77
SWIDTH 42 0
DWIDTH 7 0
BBX 5 11 1 -1
BITMAP
c0
20
40
20
c0
00
28
28
38
08
08
ENDCHAR
STARTCHAR udiaeresis
ENCODING 78
SWIDTH 42 0
DWIDTH 7 0
BBX 5 9 1 0
BITMAP
88
00
88
88
88
88
88
98
68
ENDCHAR
STARTCHAR ccedilla
ENCODING 79
SWIDTH 42 0
DWIDTH 7 0
BBX 5 9 1 -2
BITMAP
70
88
80
80
80
88
70
20
e0
ENDCHAR
STARTCHAR adiaeresis
ENCODING 80
SWIDTH 42 0
DWIDTH 7 0
BBX 5 9 1 0
BITMAP
88
00
70
88
08
78
88
88
78
ENDCHAR
STARTCHAR ediaeresis
ENCODING 81
SWIDTH 42 0
DWIDTH 7 0
BBX 5 9 1 0
BITMAP
88
00
70
88
88
f8
80
88
70
ENDCHAR
STARTCHAR idiaeresis
ENCODING 82
SWIDTH 42 0
DWIDTH 7 0
BBX 4 9 1 0
BITMAP
90
00
e0
20
20
20
20
20
20
ENDCHAR
STARTCHAR odiaeresis
ENCODING 83
SWIDTH 42 0
DWIDTH 7 0
BBX 5 9 1 0
BITMAP
88
00
70
88
88
88
88
88
70
ENDCHAR
STARTCHAR mu
ENCODING 84
SWIDTH 42 0
DWIDTH 7 0
BBX 5 9 1 -2
BITMAP
88
88
88
88
88
d8
a8
80
80
ENDCHAR
STARTCHAR acircumflex
ENCODING 85
SWIDTH 42 0
DWIDTH 7 0
BBX 5 10 1 0
BITMAP
20
50
00
70
88
08
78
88
88
78
ENDCHAR
STARTCHAR ecircumflex
ENCODING 86
SWIDTH 42 0
DWIDTH 7 0
BBX 5 10 1 0
BITMAP
20
50
00
70
88
88
f8
80
88
70
ENDCHAR
STARTCHAR icircumflex
ENCODING 87
SWIDTH 42 0
DWIDTH 7 0
BBX 4 10 1 0
BITMAP
20
50
00
e0
20
20
20
20
20
20
ENDCHAR
STARTCHAR ocircumflex
ENCODING 88
SWIDTH 42 0
DWIDTH 7 0
BBX 5 10 1 0
BITMAP
20
50
00
70
88
88
88
88
88
70
ENDCHAR
STARTCHAR ucircumflex
ENCODING 89
SWIDTH 42 0
DWIDTH 7 0
BBX 5 10 1 0
BITMAP
20
50
00
88
88
88
88
88
98
68
ENDCHAR
STARTCHAR aacute
ENCODING 90
SWIDTH 42 0
DWIDTH 7 0
BBX 5 10 1 0
BITMAP
10
20
00
70
88
08
78
88
88
78
ENDCHAR
STARTCHAR multiply
ENCODING 91
SWIDTH 42 0
DWIDTH 7 0
BBX 5 5 1 2
BITMAP
88
50
20
50
88
ENDCHAR
STARTCHAR iacute
ENCODING 92
SWIDTH 42 0
DWIDTH 7 0
BBX 4 10 1 0
BITMAP
10
20
00
e0
20
20
20
20
20
20
ENDCHAR
STARTCHAR oacute
ENCODING 93
SWIDTH 42 0
DWIDTH 7 0
BBX 5 10 1 0
BITMAP
10
20
00
70
88
88
88
88
88
70
ENDCHAR
STARTCHAR uacute
ENCODING 94
SWIDTH 42 0
DWIDTH 7 0
BBX 5 10 1 0
BITMAP
10
20
00
88
88
88
88
88
98
68
ENDCHAR
STARTCHAR ntilde
ENCODING 95
SWIDTH 42 0
DWIDTH 7 0
BBX 5 10 1 0
BITMAP
28
50
00
b0
c8
88
88
88
88
88
ENDCHAR
STARTCHAR Agrave
ENCODING 96
SWIDTH 42 0
DWIDTH 7 0
BBX 5 10 1 0
BITMAP
20
10
00
20
50
50
88
f8
88
88
ENDCHAR
STARTCHAR Egrave
ENCODING 97
SWIDTH 42 0
DWIDTH 7 0
BBX 5 10 1 0
BITMAP
20
10
00
f8
80
80
f8
80
80
f8
ENDCHAR
STARTCHAR Igrave
ENCODING 98
SWIDTH 42 0
DWIDTH 7 0
BBX 5 10 1 0
BITMAP
40
20
00
f8
20
20
20
20
20
f8
ENDCHAR
STARTCHAR Ograve
ENCODING 99
SWIDTH 42 0
DWIDTH 7 0
BBX 5 10 1 0
BITMAP
40
20
00
70
88
88
88
88
88
70
ENDCHAR
STARTCHAR Ugrave
ENCODING 100
SWIDTH 42 0
DWIDTH 7 0
BBX 5 10 1 0
BITMAP
40
20
00
88
88
88
88
88
88
70
ENDCHAR
STARTCHAR Atilde
ENCODING 101
SWIDTH 42 0
DWIDTH 7 0
BBX 5 10 1 0
BITMAP
28
50
00
20
50
50
88
f8
88
88
ENDCHAR
STARTCHAR Otilde
ENCODING 102
SWIDTH 42 0
DWIDTH 7 0
BBX 5 10 1 0
BITMAP
28
50
00
70
88
88
88
88
88
70
ENDCHAR
STARTCHAR onesuperior
ENCODING 103
SWIDTH 42 0
DWIDTH 7 0
BBX 3 5 2 4
BITMAP
40
c0
40
40
e0
ENDCHAR
STARTCHAR twosuperior
ENCODING 104
SWIDTH 42 0
DWIDTH 7 0
BBX 3 5 2 4
BITMAP
c0
20
40
80
e0
ENDCHAR
STARTCHAR threesuperior
ENCODING 105
SWIDTH 42 0
DWIDTH 7 0
BBX 3 5 2 4
BITMAP
c0
20
40
20
c0
ENDCHAR
STARTCHAR ordfeminine
ENCODING 106
SWIDTH 42 0
DWIDTH 7 0
BBX 4 7 1 2
BITMAP
60
10
70
90
70
00
f0
ENDCHAR
STARTCHAR masculine
ENCODING 107
SWIDTH 42 0
DWIDTH 7 0
BBX 4 7 1 2
BITMAP
60
90
90
90
60
00
f0
ENDCHAR
STARTCHAR guillemotleft
ENCODING 108
SWIDTH 42 0
DWIDTH 7 0
BBX 5 3 1 3
BITMAP
48
90
48
ENDCHAR
STARTCHAR guillemotright
ENCODING 109
SWIDTH 42 0
DWIDTH 7 0
BBX 5 3 1 3
BITMAP
90
48
90
ENDCHAR
STARTCHAR exclamdown
ENCODING 110
SWIDTH 42 0
DWIDTH 7 0
BBX 1 10 3 0
BITMAP
80
00
00
80
80
80
80
80
80
80
ENDCHAR
STARTCHAR questiondown
ENCODING 111
SWIDTH 42 0
DWIDTH 7 0
BBX 5 10 1 0
BITMAP
20
00
00
20
20
40
80
88
88
70
ENDCHAR
STARTCHAR Adiaeresis
ENCODING 112
SWIDTH 42 0
DWIDTH 7 0
BBX 5 9 1 0
BITMAP
88
00
20
50
50
88
f8
88
88
ENDCHAR
STARTCHAR Ediaeresis
ENCODING 113
SWIDTH 42 0
DWIDTH 7 0
BBX 5 9 1 0
BITMAP
88
00
f8
80
80
f8
80
80
f8
ENDCHAR
STARTCHAR Idiaeresis
ENCODING 114
SWIDTH 42 0
DWIDTH 7 0
BBX 5 9 1 0
BITMAP
88
00
f8
20
20
20
20
20
f8
ENDCHAR
STARTCHAR Odiaeresis
ENCODING 115
SWIDTH 42 0
DWIDTH 7 0
BBX 5 9 1 0
BITMAP
88
00
70
88
88
88
88
88
70
ENDCHAR
STARTCHAR Udiaeresis
ENCODING 116
SWIDTH 42 0
DWIDTH 7 0
BBX 5 9 1 0
BITMAP
88
00
88
88
88
88
88
88
70
ENDCHAR
STARTCHAR Acircumflex
ENCODING 117
SWIDTH 42 0
DWIDTH 7 0
BBX 5 10 1 0
BITMAP
20
50
00
20
50
50
88
f8
88
88
ENDCHAR
STARTCHAR Ecircumflex
ENCODING 118
SWIDTH 42 0
DWIDTH 7 0
BBX 5 10 1 0
BITMAP
20
50
00
f8
80
80
f8
80
80
f8
ENDCHAR
STARTCHAR Icircumflex
ENCODING 119
SWIDTH 42 0
DWIDTH 7 0
BBX 5 10 1 0
BITMAP
20
50
00
f8
20
20
20
20
20
f8
ENDCHAR
STARTCHAR Ocircumflex
ENCODING 120
SWIDTH 42 0
DWIDTH 7 0
BBX 5 10 1 0
BITMAP
20
50
00
70
88
88
88
88
88
70
ENDCHAR
STARTCHAR Ucircumflex
ENCODING 121
SWIDTH 42 0
DWIDTH 7 0
BBX 5 10 1 0
BITMAP
20
50
00
88
88
88
88
88
88
70
ENDCHAR
STARTCHAR Aacute
ENCODING 122
SWIDTH 42 0
DWIDTH 7 0
BBX 5 10 1 0
BITMAP
10
20
00
20
50
50
88
f8
88
88
ENDCHAR
STARTCHAR Eacute
ENCODING 123
SWIDTH 42 0
DWIDTH 7 0
BBX 5 10 1 0
BITMAP
10
20
00
f8
80
80
f8
80
80
f8
ENDCHAR
STARTCHAR Iacute
ENCODING 124
SWIDTH 42 0
DWIDTH 7 0
BBX 5 10 1 0
BITMAP
10
20
00
f8
20
20
20
20
20
f8
ENDCHAR
STARTCHAR Oacute
ENCODING 125
SWIDTH 42 0
DWIDTH 7 0
BBX 5 10 1 0
BITMAP
10
20
00
70
88
88
88
88
88
70
ENDCHAR
STARTCHAR Uacute
ENCODING 126
SWIDTH 42 0
DWIDTH 7 0
BBX 5 10 1 0
BITMAP
10
20
00
88
88
88
88
88
88
70
ENDCHAR
STARTCHAR Ntilde
ENCODING 127
SWIDTH 42 0
DWIDTH 7 0
BBX 5 10 1 0
BITMAP
28
50
00
88
c8
c8
a8
98
98
88
ENDCHAR
STARTCHAR a
ENCODING 128
SWIDTH 42 0
DWIDTH 7 0
BBX 5 7 1 0
BITMAP
70
88
08
78
88
88
78
ENDCHAR
STARTCHAR b
ENCODING 129
SWIDTH 42 0
DWIDTH 7 0
BBX 5 9 1 0
BITMAP
80
80
b0
c8
88
88
88
c8
b0
ENDCHAR
STARTCHAR c
ENCODING 130
SWIDTH 42 0
DWIDTH 7 0
BBX 5 7 1 0
BITMAP
70
88
80
80
80
88
70
ENDCHAR
STARTCHAR d
ENCODING 131
SWIDTH 42 0
DWIDTH 7 0
BBX 5 9 1 0
BITMAP
08
08
68
98
88
88
88
98
68
ENDCHAR
STARTCHAR e
ENCODING 132
SWIDTH 42 0
DWIDTH 7 0
BBX 5 7 1 0
BITMAP
70
88
88
f8
80
88
70
ENDCHAR
STARTCHAR f
ENCODING 133
SWIDTH 42 0
DWIDTH 7 0
BBX 5 9 1 0
BITMAP
18
20
20
f8
20
20
20
20
20
ENDCHAR
STARTCHAR g
ENCODING 134
SWIDTH 42 0
DWIDTH 7 0
BBX 5 9 1 -2
BITMAP
68
98
88
88
98
68
08
88
70
ENDCHAR
STARTCHAR h
ENCODING 135
SWIDTH 42 0
DWIDTH 7 0
BBX 5 9 1 0
BITMAP
80
80
b0
c8
88
88
88
88
88
ENDCHAR
STARTCHAR i
ENCODING 136
SWIDTH 42 0
DWIDTH 7 0
BBX 3 9 1 0
BITMAP
20
00
e0
20
20
20
20
20
20
ENDCHAR
STARTCHAR j
ENCODING 137
SWIDTH 42 0
DWIDTH 7 0
BBX 4 11 1 -2
BITMAP
10
00
70
10
10
10
10
10
10
90
60
ENDCHAR
STARTCHAR k
ENCODING 138
SWIDTH 42 0
DWIDTH 7 0
BBX 5 9 1 0
BITMAP
80
80
90
a0
c0
c0
a0
90
88
ENDCHAR
STARTCHAR l
ENCODING 139
SWIDTH 42 0
DWIDTH 7 0
BBX 3 9 2 0
BITMAP
e0
20
20
20
20
20
20
20
20
ENDCHAR
STARTCHAR m
ENCODING 140
SWIDTH 42 0
DWIDTH 7 0
BBX 5 7 1 0
BITMAP
d0
a8
a8
a8
a8
a8
a8
ENDCHAR
STARTCHAR n
ENCODING 141
SWIDTH 42 0
DWIDTH 7 0
BBX 5 7 1 0
BITMAP
b0
c8
88
88
88
88
88
ENDCHAR
STARTCHAR o
ENCODING 142
SWIDTH 42 0
DWIDTH 7 0
BBX 5 7 1 0
BITMAP
70
88
88
88
88
88
70
ENDCHAR
STARTCHAR p
ENCODING 143
SWIDTH 42 0
DWIDTH 7 0
BBX 5 9 1 -2
BITMAP
b0
c8
88
88
88
c8
b0
80
80
ENDCHAR
STARTCHAR q
ENCODING 144
SWIDTH 42 0
DWIDTH 7 0
BBX 5 9 1 -2
BITMAP
68
98
88
88
88
98
68
08
08
ENDCHAR
STARTCHAR r
ENCODING 145
SWIDTH 42 0
DWIDTH 7 0
BBX 5 7 1 0
BITMAP
b0
c8
80
80
80
80
80
ENDCHAR
STARTCHAR s
ENCODING 146
SWIDTH 42 0
DWIDTH 7 0
BBX 5 7 1 0
BITMAP
70
88
80
70
08
88
70
ENDCHAR
STARTCHAR t
ENCODING 147
SWIDTH 42 0
DWIDTH 7 0
BBX 5 9 1 0
BITMAP
20
20
f8
20
20
20
20
20
18
ENDCHAR
STARTCHAR u
ENCODING 148
SWIDTH 42 0
DWIDTH 7 0
BBX 5 7 1 0
BITMAP
88
88
88
88
88
98
68
ENDCHAR
STARTCHAR v
ENCODING 149
SWIDTH 42 0
DWIDTH 7 0
BBX 5 7 1 0
BITMAP
88
88
88
50
50
20
20
ENDCHAR
STARTCHAR w
ENCODING 150
SWIDTH 42 0
DWIDTH 7 0
BBX 5 7 1 0
BITMAP
88
88
a8
a8
a8
a8
50
ENDCHAR
STARTCHAR x
ENCODING 151
SWIDTH 42 0
DWIDTH 7 0
BBX 5 7 1 0
BITMAP
88
88
50
20
50
88
88
ENDCHAR
STARTCHAR y
ENCODING 152
SWIDTH 42 0
DWIDTH 7 0
BBX 5 9 1 -2
BITMAP
88
88
48
48
28
30
10
10
e0
ENDCHAR
STARTCHAR z
ENCODING 153
SWIDTH 42 0
DWIDTH 7 0
BBX 5 7 1 0
BITMAP
f8
08
10
20
40
80
f8
ENDCHAR
STARTCHAR ae
ENCODING 154
SWIDTH 42 0
DWIDTH 7 0
BBX 7 7 0 0
BITMAP
ee
10
30
5e
90
90
6e
ENDCHAR
STARTCHAR oslash
ENCODING 155
SWIDTH 42 0
DWIDTH 7 0
BBX 7 7 0 0
BITMAP
3a
44
4c
54
64
44
b8
ENDCHAR
STARTCHAR aring
ENCODING 156
SWIDTH 42 0
DWIDTH 7 0
BBX 5 10 1 0
BITMAP
70
70
00
70
88
08
78
88
88
78
ENDCHAR
STARTCHAR division
ENCODING 157
SWIDTH 42 0
DWIDTH 7 0
BBX 4 7 1 0
BITMAP
60
60
00
f0
00
60
60
ENDCHAR
STARTCHAR fm
ENCODING 158
SWIDTH 42 0
DWIDTH 7 0
BBX 5 12 1 -2
BITMAP
f8
f8
00
00
30
30
00
00
30
30
10
60
ENDCHAR
STARTCHAR dup
ENCODING 159
SWIDTH 42 0
DWIDTH 7 0
BBX 5 9 1 1
BITMAP
f8
f8
00
20
a8
70
70
a8
20
ENDCHAR
STARTCHAR A
ENCODING 160
SWIDTH 42 0
DWIDTH 7 0
BBX 5 9 1 0
BITMAP
20
20
50
50
50
88
f8
88
88
ENDCHAR
STARTCHAR B
ENCODING 161
SWIDTH 42 0
DWIDTH 7 0
BBX 5 9 1 0
BITMAP
e0
90
90
90
f0
88
88
88
f0
ENDCHAR
STARTCHAR C
ENCODING 162
SWIDTH 42 0
DWIDTH 7 0
BBX 5 9 1 0
BITMAP
70
88
88
80
80
80
88
88
70
ENDCHAR
STARTCHAR D
ENCODING 163
SWIDTH 42 0
DWIDTH 7 0
BBX 5 9 1 0
BITMAP
e0
90
88
88
88
88
88
90
e0
ENDCHAR
STARTCHAR E
ENCODING 164
SWIDTH 42 0
DWIDTH 7 0
BBX 5 9 1 0
BITMAP
f8
80
80
80
f0
80
80
80
f8
ENDCHAR
STARTCHAR F
ENCODING 165
SWIDTH 42 0
DWIDTH 7 0
BBX 5 9 1 0
BITMAP
f8
80
80
80
f0
80
80
80
80
ENDCHAR
STARTCHAR G
ENCODING 166
SWIDTH 42 0
DWIDTH 7 0
BBX 5 9 1 0
BITMAP
70
88
80
80
98
88
88
98
68
ENDCHAR
STARTCHAR H
ENCODING 167
SWIDTH 42 0
DWIDTH 7 0
BBX 5 9 1 0
BITMAP
88
88
88
88
f8
88
88
88
88
ENDCHAR
STARTCHAR I
ENCODING 168
SWIDTH 42 0
DWIDTH 7 0
BBX 5 9 1 0
BITMAP
f8
20
20
20
20
20
20
20
f8
ENDCHAR
STARTCHAR J
ENCODING 169
SWIDTH 42 0
DWIDTH 7 0
BBX 5 9 1 0
BITMAP
78
10
10
10
10
10
90
90
60
ENDCHAR
STARTCHAR K
ENCODING 170
SWIDTH 42 0
DWIDTH 7 0
BBX 5 9 1 0
BITMAP
88
90
a0
c0
a0
90
90
88
88
ENDCHAR
STARTCHAR L
ENCODING 171
SWIDTH 42 0
DWIDTH 7 0
BBX 5 9 1 0
BITMAP
80
80
80
80
80
80
80
80
f8
ENDCHAR
STARTCHAR M
ENCODING 172
SWIDTH 42 0
DWIDTH 7 0
BBX 6 9 0 0
BITMAP
84
84
cc
cc
b4
b4
84
84
84
ENDCHAR
STARTCHAR N
ENCODING 173
SWIDTH 42 0
DWIDTH 7 0
BBX 5 9 1 0
BITMAP
88
c8
c8
a8
a8
98
98
88
88
ENDCHAR
STARTCHAR O
ENCODING 174
SWIDTH 42 0
DWIDTH 7 0
BBX 5 9 1 0
BITMAP
70
88
88
88
88
88
88
88
70
ENDCHAR
STARTCHAR P
ENCODING 175
SWIDTH 42 0
DWIDTH 7 0
BBX 5 9 1 0
BITMAP
f0
88
88
88
f0
80
80
80
80
ENDCHAR
STARTCHAR Q
ENCODING 176
SWIDTH 42 0
DWIDTH 7 0
BBX 5 11 1 -2
BITMAP
70
88
88
88
88
88
88
88
70
20
18
ENDCHAR
STARTCHAR R
ENCODING 177
SWIDTH 42 0
DWIDTH 7 0
BBX 5 9 1 0
BITMAP
f0
88
88
88
f0
90
88
88
88
ENDCHAR
STARTCHAR S
ENCODING 178
SWIDTH 42 0
DWIDTH 7 0
BBX 5 9 1 0
BITMAP
70
88
80
40
30
08
08
88
70
ENDCHAR
STARTCHAR T
ENCODING 179
SWIDTH 42 0
DWIDTH 7 0
BBX 5 9 1 0
BITMAP
f8
20
20
20
20
20
20
20
20
ENDCHAR
STARTCHAR U
ENCODING 180
SWIDTH 42 0
DWIDTH 7 0
BBX 5 9 1 0
BITMAP
88
88
88
88
88
88
88
88
70
ENDCHAR
STARTCHAR V
ENCODING 181
SWIDTH 42 0
DWIDTH 7 0
BBX 5 9 1 0
BITMAP
88
88
88
50
50
50
20
20
20
ENDCHAR
STARTCHAR W
ENCODING 182
SWIDTH 42 0
DWIDTH 7 0
BBX 7 9 0 0
BITMAP
82
82
82
92
54
54
54
28
28
ENDCHAR
STARTCHAR X
ENCODING 183
SWIDTH 42 0
DWIDTH 7 0
BBX 5 9 1 0
BITMAP
88
88
50
50
20
50
50
88
88
ENDCHAR
STARTCHAR Y
ENCODING 184
SWIDTH 42 0
DWIDTH 7 0
BBX 5 9 1 0
BITMAP
88
88
88
50
20
20
20
20
20
ENDCHAR
STARTCHAR Z
ENCODING 185
SWIDTH 42 0
DWIDTH 7 0
BBX 5 9 1 0
BITMAP
f8
08
08
10
20
40
80
80
f8
ENDCHAR
STARTCHAR AE
ENCODING 186
SWIDTH 42 0
DWIDTH 7 0
BBX 6 9 0 0
BITMAP
1c
30
30
50
5c
70
90
90
9c
ENDCHAR
STARTCHAR Ooblique
ENCODING 187
SWIDTH 42 0
DWIDTH 7 0
BBX 5 10 1 -1
BITMAP
70
88
88
98
a8
a8
c8
88
88
70
ENDCHAR
STARTCHAR Aring
ENCODING 188
SWIDTH 42 0
DWIDTH 7 0
BBX 5 10 1 0
BITMAP
70
70
00
20
50
50
88
f8
88
88
ENDCHAR
STARTCHAR Ccedilla
ENCODING 189
SWIDTH 42 0
DWIDTH 7 0
BBX 5 11 1 -2
BITMAP
70
88
88
80
80
80
88
88
70
20
e0
ENDCHAR
STARTCHAR semicolon
ENCODING 190
SWIDTH 42 0
DWIDTH 7 0
BBX 3 9 2 -2
BITMAP
60
60
00
00
00
60
60
20
c0
ENDCHAR
STARTCHAR asterisk
ENCODING 191
SWIDTH 42 0
DWIDTH 7 0
BBX 5 6 1 3
BITMAP
20
a8
70
70
a8
20
ENDCHAR
STARTCHAR c0
ENCODING 192
SWIDTH 42 0
DWIDTH 7 0
BBX 7 11 0 -1
BITMAP
00
00
00
00
00
00
00
00
00
00
00
ENDCHAR
STARTCHAR c1
ENCODING 193
SWIDTH 42 0
DWIDTH 7 0
BBX 7 11 0 -1
BITMAP
00
00
00
00
00
00
00
00
00
00
00
ENDCHAR
STARTCHAR c2
ENCODING 194
SWIDTH 42 0
DWIDTH 7 0
BBX 7 11 0 -1
BITMAP
00
00
00
00
00
00
00
00
00
00
00
ENDCHAR
STARTCHAR c3
ENCODING 195
SWIDTH 42 0
DWIDTH 7 0
BBX 7 11 0 -1
BITMAP
00
00
00
00
00
00
00
00
00
00
00
ENDCHAR
STARTCHAR c4
ENCODING 196
SWIDTH 42 0
DWIDTH 7 0
BBX 7 11 0 -1
BITMAP
00
00
00
00
00
00
00
00
00
00
00
ENDCHAR
STARTCHAR c5
ENCODING 197
SWIDTH 42 0
DWIDTH 7 0
BBX 7 11 0 -1
BITMAP
00
00
00
00
00
00
00
00
00
00
00
ENDCHAR
STARTCHAR c6
ENCODING 198
SWIDTH 42 0
DWIDTH 7 0
BBX 7 11 0 -1
BITMAP
00
00
00
00
00
00
00
00
00
00
00
ENDCHAR
STARTCHAR c7
ENCODING 199
SWIDTH 42 0
DWIDTH 7 0
BBX 7 11 0 -1
BITMAP
00
00
00
00
00
00
00
00
00
00
00
ENDCHAR
STARTCHAR c8
ENCODING 200
SWIDTH 42 0
DWIDTH 7 0
BBX 7 11 0 -1
BITMAP
00
00
00
00
00
00
00
00
00
00
00
ENDCHAR
STARTCHAR c9
ENCODING 201
SWIDTH 42 0
DWIDTH 7 0
BBX 7 11 0 -1
BITMAP
00
00
00
00
00
00
00
00
00
00
00
ENDCHAR
STARTCHAR ca
ENCODING 202
SWIDTH 42 0
DWIDTH 7 0
BBX 7 11 0 -1
BITMAP
00
00
00
00
00
00
00
00
00
00
00
ENDCHAR
STARTCHAR cb
ENCODING 203
SWIDTH 42 0
DWIDTH 7 0
BBX 7 11 0 -1
BITMAP
00
00
00
00
00
00
00
00
00
00
00
ENDCHAR
STARTCHAR cc
ENCODING 204
SWIDTH 42 0
DWIDTH 7 0
BBX 7 11 0 -1
BITMAP
00
00
00
00
00
00
00
00
00
00
00
ENDCHAR
STARTCHAR cd
ENCODING 205
SWIDTH 42 0
DWIDTH 7 0
BBX 7 11 0 -1
BITMAP
00
00
00
00
00
00
00
00
00
00
00
ENDCHAR
STARTCHAR ce
ENCODING 206
SWIDTH 42 0
DWIDTH 7 0
BBX 7 11 0 -1
BITMAP
00
00
00
00
00
00
00
00
00
00
00
ENDCHAR
STARTCHAR cf
ENCODING 207
SWIDTH 42 0
DWIDTH 7 0
BBX 7 11 0 -1
BITMAP
00
00
00
00
00
00
00
00
00
00
00
ENDCHAR
STARTCHAR copyright
ENCODING 208
SWIDTH 42 0
DWIDTH 7 0
BBX 5 7 1 2
BITMAP
70
88
a8
c8
a8
88
70
ENDCHAR
STARTCHAR registered
ENCODING 209
SWIDTH 42 0
DWIDTH 7 0
BBX 5 7 1 2
BITMAP
70
88
e8
e8
d8
88
70
ENDCHAR
STARTCHAR boxA
ENCODING 210
SWIDTH 42 0
DWIDTH 7 0
BBX 7 12 0 -2
BITMAP
20
50
88
88
f8
88
88
00
fe
82
82
fe
ENDCHAR
STARTCHAR insert
ENCODING 211
SWIDTH 42 0
DWIDTH 7 0
BBX 7 6 0 1
BITMAP
10
38
7c
ee
c6
82
ENDCHAR
STARTCHAR boxB
ENCODING 212
SWIDTH 42 0
DWIDTH 7 0
BBX 7 12 0 -2
BITMAP
1c
12
12
1c
12
12
1c
00
fe
82
82
fe
ENDCHAR
STARTCHAR box6
ENCODING 213
SWIDTH 42 0
DWIDTH 7 0
BBX 7 11 0 -1
BITMAP
fe
82
82
92
a2
b2
aa
92
82
82
fe
ENDCHAR
STARTCHAR plusminus
ENCODING 214
SWIDTH 42 0
DWIDTH 7 0
BBX 5 7 1 0
BITMAP
20
20
f8
20
20
00
f8
ENDCHAR
STARTCHAR ETH
ENCODING 215
SWIDTH 42 0
DWIDTH 7 0
BBX 6 9 0 0
BITMAP
70
48
44
44
f4
44
44
48
70
ENDCHAR
STARTCHAR rightarrow
ENCODING 216
SWIDTH 42 0
DWIDTH 7 0
BBX 7 5 0 2
BITMAP
08
0c
fe
0c
08
ENDCHAR
STARTCHAR THORN
ENCODING 217
SWIDTH 42 0
DWIDTH 7 0
BBX 5 9 1 0
BITMAP
80
80
f0
88
88
88
f0
80
80
ENDCHAR
STARTCHAR upshift
ENCODING 218
SWIDTH 42 0
DWIDTH 7 0
BBX 7 11 0 -1
BITMAP
10
28
44
82
ee
28
28
28
28
28
38
ENDCHAR
STARTCHAR human
ENCODING 219
SWIDTH 42 0
DWIDTH 7 0
BBX 7 10 0 -1
BITMAP
38
28
38
10
fe
10
10
28
44
82
ENDCHAR
STARTCHAR underB
ENCODING 220
SWIDTH 42 0
DWIDTH 7 0
BBX 7 9 0 1
BITMAP
78
24
24
38
24
24
78
00
fe
ENDCHAR
STARTCHAR downshift
ENCODING 221
SWIDTH 42 0
DWIDTH 7 0
BBX 7 11 0 -1
BITMAP
38
28
28
28
28
28
ee
82
44
28
10
ENDCHAR
STARTCHAR boxquestion
ENCODING 222
SWIDTH 42 0
DWIDTH 7 0
BBX 7 11 0 -1
BITMAP
fe
82
92
aa
8a
92
92
82
92
82
fe
ENDCHAR
STARTCHAR boxsolid
ENCODING 223
SWIDTH 42 0
DWIDTH 7 0
BBX 7 11 0 -1
BITMAP
fe
fe
fe
fe
fe
fe
fe
fe
fe
fe
fe
ENDCHAR
STARTCHAR e0
ENCODING 224
SWIDTH 42 0
DWIDTH 7 0
BBX 7 11 0 -1
BITMAP
00
00
00
00
00
00
00
00
00
00
00
ENDCHAR
STARTCHAR e1
ENCODING 225
SWIDTH 42 0
DWIDTH 7 0
BBX 7 11 0 -1
BITMAP
00
00
00
00
00
00
00
00
00
00
00
ENDCHAR
STARTCHAR e2
ENCODING 226
SWIDTH 42 0
DWIDTH 7 0
BBX 7 11 0 -1
BITMAP
00
00
00
00
00
00
00
00
00
00
00
ENDCHAR
STARTCHAR e3
ENCODING 227
SWIDTH 42 0
DWIDTH 7 0
BBX 7 11 0 -1
BITMAP
00
00
00
00
00
00
00
00
00
00
00
ENDCHAR
STARTCHAR e4
ENCODING 228
SWIDTH 42 0
DWIDTH 7 0
BBX 7 11 0 -1
BITMAP
00
00
00
00
00
00
00
00
00
00
00
ENDCHAR
STARTCHAR e5
ENCODING 229
SWIDTH 42 0
DWIDTH 7 0
BBX 7 11 0 -1
BITMAP
00
00
00
00
00
00
00
00
00
00
00
ENDCHAR
STARTCHAR e6
ENCODING 230
SWIDTH 42 0
DWIDTH 7 0
BBX 7 11 0 -1
BITMAP
00
00
00
00
00
00
00
00
00
00
00
ENDCHAR
STARTCHAR e7
ENCODING 231
SWIDTH 42 0
DWIDTH 7 0
BBX 7 11 0 -1
BITMAP
00
00
00
00
00
00
00
00
00
00
00
ENDCHAR
STARTCHAR e8
ENCODING 232
SWIDTH 42 0
DWIDTH 7 0
BBX 7 11 0 -1
BITMAP
00
00
00
00
00
00
00
00
00
00
00
ENDCHAR
STARTCHAR e9
ENCODING 233
SWIDTH 42 0
DWIDTH 7 0
BBX 7 11 0 -1
BITMAP
00
00
00
00
00
00
00
00
00
00
00
ENDCHAR
STARTCHAR ea
ENCODING 234
SWIDTH 42 0
DWIDTH 7 0
BBX 7 11 0 -1
BITMAP
00
00
00
00
00
00
00
00
00
00
00
ENDCHAR
STARTCHAR eb
ENCODING 235
SWIDTH 42 0
DWIDTH 7 0
BBX 7 11 0 -1
BITMAP
00
00
00
00
00
00
00
00
00
00
00
ENDCHAR
STARTCHAR ec
ENCODING 236
SWIDTH 42 0
DWIDTH 7 0
BBX 7 11 0 -1
BITMAP
00
00
00
00
00
00
00
00
00
00
00
ENDCHAR
STARTCHAR ed
ENCODING 237
SWIDTH 42 0
DWIDTH 7 0
BBX 7 11 0 -1
BITMAP
00
00
00
00
00
00
00
00
00
00
00
ENDCHAR
STARTCHAR ee
ENCODING 238
SWIDTH 42 0
DWIDTH 7 0
BBX 7 11 0 -1
BITMAP
00
00
00
00
00
00
00
00
00
00
00
ENDCHAR
STARTCHAR ef
ENCODING 239
SWIDTH 42 0
DWIDTH 7 0
BBX 7 11 0 -1
BITMAP
00
00
00
00
00
00
00
00
00
00
00
ENDCHAR
STARTCHAR badcommhi
ENCODING 240
SWIDTH 42 0
DWIDTH 7 0
BBX 7 12 0 -2
BITMAP
80
80
40
40
20
fe
10
10
08
08
04
04
ENDCHAR
STARTCHAR commhi
ENCODING 241
SWIDTH 42 0
DWIDTH 7 0
BBX 7 1 0 4
BITMAP
fe
ENDCHAR
STARTCHAR commjag
ENCODING 242
SWIDTH 42 0
DWIDTH 7 0
BBX 7 5 0 0
BITMAP
fc
08
10
20
7e
ENDCHAR
STARTCHAR commlo
ENCODING 243
SWIDTH 42 0
DWIDTH 7 0
BBX 7 1 0 0
BITMAP
fe
ENDCHAR
STARTCHAR clockleft
ENCODING 244
SWIDTH 42 0
DWIDTH 7 0
BBX 7 12 0 -2
BITMAP
02
10
00
40
00
02
82
02
02
42
02
10
ENDCHAR
STARTCHAR clockright
ENCODING 245
SWIDTH 42 0
DWIDTH 7 0
BBX 6 11 0 -1
BITMAP
20
00
28
40
80
04
00
00
08
00
20
ENDCHAR
STARTCHAR lock
ENCODING 246
SWIDTH 42 0
DWIDTH 7 0
BBX 7 11 0 -1
BITMAP
82
c6
ee
7c
38
38
38
7c
ee
c6
82
ENDCHAR
STARTCHAR eth
ENCODING 247
SWIDTH 42 0
DWIDTH 7 0
BBX 5 11 1 0
BITMAP
50
20
50
08
68
98
88
88
88
98
68
ENDCHAR
STARTCHAR leftarrow
ENCODING 248
SWIDTH 42 0
DWIDTH 7 0
BBX 7 5 0 2
BITMAP
20
60
fe
60
20
ENDCHAR
STARTCHAR thorn
ENCODING 249
SWIDTH 42 0
DWIDTH 7 0
BBX 5 9 1 0
BITMAP
80
b0
c8
88
88
88
c8
b0
80
ENDCHAR
STARTCHAR keyleft
ENCODING 250
SWIDTH 42 0
DWIDTH 7 0
BBX 6 5 1 3
BITMAP
70
88
8c
88
70
ENDCHAR
STARTCHAR keyright
ENCODING 251
SWIDTH 42 0
DWIDTH 7 0
BBX 7 4 0 2
BITMAP
fe
36
36
06
ENDCHAR
STARTCHAR box4
ENCODING 252
SWIDTH 42 0
DWIDTH 7 0
BBX 7 11 0 -1
BITMAP
fe
82
8a
9a
aa
ba
8a
8a
82
82
fe
ENDCHAR
STARTCHAR underA
ENCODING 253
SWIDTH 42 0
DWIDTH 7 0
BBX 7 9 0 1
BITMAP
10
28
44
44
7c
44
44
00
fe
ENDCHAR
STARTCHAR magcard
ENCODING 254
SWIDTH 42 0
DWIDTH 7 0
BBX 7 7 0 1
BITMAP
fe
82
82
82
fe
82
fe
ENDCHAR
STARTCHAR boxhuman
ENCODING 255
SWIDTH 42 0
DWIDTH 7 0
BBX 7 12 0 -2
BITMAP
fe
82
ba
aa
ba
92
fe
92
92
aa
c6
fe
ENDCHAR
ENDFONT
